# xmcd CD database file
#
# Track frame offsets:
#	150
#	31287
#	45380
#	70150
#	80857
#	96140
#	122297
#	139520
#	164070
#	181990
#
# Disc length: 2690 seconds
#
# Revision: 0
# Processed by: cddbd v1.5.2PL0 Copyright (c) Steve Scherf et al.
# Submitted via: CDex 1.70beta2
#
DISCID=7f0a800a
DTITLE=Various Artist - Mucho Calor
DYEAR=1958
DGENRE=Jazz
TTITLE0=Mucho Calor
TTITLE1=Autumn Leaves
TTITLE2=Mambo de la Pinta
TTITLE3=I'll Remember April
TTITLE4=Vaya Hombre Vaya
TTITLE5=I Love You
TTITLE6=Mambo Jumbo
TTITLE7=Old Devil Moon
TTITLE8=Pernod
TTITLE9=That Old Black Magic
EXTD=YEAR: 1958
EXTT0=
EXTT1=
EXTT2=
EXTT3=
EXTT4=
EXTT5=
EXTT6=
EXTT7=
EXTT8=
EXTT9=
PLAYORDER=
